<?xml version="1.0" encoding="utf-8"?>
<!-- Generator: Adobe Illustrator 17.1.0, SVG Export Plug-In . SVG Version: 6.00 Build 0)  -->
<!DOCTYPE svg PUBLIC "-//W3C//DTD SVG 1.1//EN" "http://www.w3.org/Graphics/SVG/1.1/DTD/svg11.dtd">
<svg version="1.1" id="Layer_1" xmlns="http://www.w3.org/2000/svg" xmlns:xlink="http://www.w3.org/1999/xlink" x="0px" y="0px"
	 viewBox="0 0 512 512" enable-background="new 0 0 512 512" xml:space="preserve">
<path fill="#FFFFFF" d="M483.7,0H28.3C12.6,0,0,12.6,0,28.3v455.5C0,499.4,12.6,512,28.3,512h245.2V313.7h-66.8v-77.2h66.8v-57.1
	c0-66.1,40.4-102.1,99.4-102.1c28.3,0,52.5,2,59.6,3v69.1h-41c-32,0-38.2,15.2-38.2,37.6v49.3h76.5l-9.9,77.3h-66.6V512h130.5
	c15.6,0,28.3-12.6,28.3-28.3V28.3C512,12.6,499.4,0,483.7,0"/>
</svg>
