<?xml version="1.0" encoding="utf-8"?>
<!-- Generator: Adobe Illustrator 17.1.0, SVG Export Plug-In . SVG Version: 6.00 Build 0)  -->
<!DOCTYPE svg PUBLIC "-//W3C//DTD SVG 1.1//EN" "http://www.w3.org/Graphics/SVG/1.1/DTD/svg11.dtd">
<svg version="1.1" id="Layer_1" xmlns="http://www.w3.org/2000/svg" xmlns:xlink="http://www.w3.org/1999/xlink" x="0px" y="0px"
	 viewBox="0 0 512 512" enable-background="new 0 0 512 512" xml:space="preserve">
<path fill="#FFFFFF" d="M256,0C114.6,0,0,114.6,0,256c0,108.5,67.5,201.1,162.7,238.4c-2.2-20.3-4.3-51.3,0.9-73.4
	c4.7-20,30-127.3,30-127.3s-7.7-15.4-7.7-38c0-35.5,20.7-62.2,46.3-62.2c21.9,0,32.4,16.4,32.4,36.1c0,22-14,54.8-21.2,85.2
	c-6.1,25.5,12.8,46.2,37.9,46.2c45.4,0,80.4-47.9,80.4-117.2c0-61.3-44-104.1-106.9-104.1c-72.8,0-115.5,54.6-115.5,111.1
	c0,22,8.4,45.6,19,58.4c2.1,2.6,2.4,4.8,1.8,7.4c-1.9,8.1-6.3,25.5-7.1,29c-1.1,4.7-3.7,5.7-8.6,3.4c-31.9-14.9-52-61.6-52-99.2
	C92.5,169.1,151.2,95,261.7,95c88.8,0,157.8,63.3,157.8,147.8c0,88.2-55.7,159.3-132.9,159.3c-25.9,0-50.3-13.5-58.7-29.4l-16,60.9
	c-5.8,22.2-21.3,50.1-31.8,67.1c24,7.4,49.4,11.4,75.8,11.4c141.3,0,256-114.6,256-256S397.3,0,256,0L256,0z"/>
</svg>
