<?xml version="1.0" encoding="utf-8"?>
<!-- Generator: Adobe Illustrator 17.1.0, SVG Export Plug-In . SVG Version: 6.00 Build 0)  -->
<!DOCTYPE svg PUBLIC "-//W3C//DTD SVG 1.1//EN" "http://www.w3.org/Graphics/SVG/1.1/DTD/svg11.dtd">
<svg version="1.1" id="Layer_1" xmlns="http://www.w3.org/2000/svg" xmlns:xlink="http://www.w3.org/1999/xlink" x="0px" y="0px"
	 viewBox="0 0 512 512" enable-background="new 0 0 512 512" xml:space="preserve">
<path fill="#FFFFFF" d="M487.8,236.4c-0.7,19.4-3.6,38.5-8.5,57.3c-5,18.8-12.4,35.5-22.3,50.3c-9.9,14.7-22.5,26.7-37.8,35.7
	c-15.4,9.1-33.7,13.6-55.1,13.6c-15,0-28.3-3.3-39.9-9.8c-11.5-6.5-20.5-15.7-26.9-27.6c-17.9,24.2-42,36.3-72.3,36.3
	c-13.2,0-25.2-2.9-36-8.8c-10.8-5.9-19.8-14.2-27-25.1c-7.3-10.9-12.5-24-15.7-39.3s-3.9-32.4-2-51.3c2.7-23,7.9-44,15.6-62.8
	c7.7-18.8,17.3-34.8,28.9-48.1c11.5-13.3,24.8-23.5,39.7-30.7c15-7.1,31-10.7,48.3-10.7c11,0,20.6,0.8,28.9,2.5
	c8.3,1.7,15.7,3.9,22.4,6.7c6.7,2.9,12.9,6.1,18.6,9.8c5.7,3.6,11.4,7.4,17,11.3l-14,161.3c-1,7.7-0.8,14,0.4,18.9
	c1.2,4.8,3.1,8.7,5.8,11.6c2.7,2.9,5.8,5,9.3,6.1c3.5,1.1,7.2,1.6,10.9,1.6c7.8,0,15.2-2.7,22-8.1c6.7-5.4,12.6-12.9,17.6-22.4
	c4.9-9.5,8.9-20.8,11.8-33.7c2.9-12.9,4.6-26.9,5.2-41.9c1.5-28.6-0.7-54.7-6.6-78.3c-5.9-23.6-15.6-43.8-29-60.6
	c-13.4-16.7-30.8-29.8-52-39c-21.1-9.2-46.4-13.9-75.7-13.9c-27.8,0-52.8,5.4-74.9,16.3c-22.1,10.9-41.1,26-56.9,45.2
	c-15.8,19.3-28.3,41.9-37.2,68.1c-9,26.1-14.2,54.4-15.7,84.8c-1.4,33,1.2,61.8,8,86.5s17.3,45.4,31.6,62
	c14.3,16.6,32.1,29,53.6,37.2c21.4,8.2,46.1,12.4,73.9,12.4c7.9,0,16-0.4,24.2-1.4c8.3-0.9,16.3-2.2,24.3-3.8
	c8-1.6,15.6-3.5,22.8-5.6c7.2-2.1,13.8-4.5,19.6-7l10.1,45.6c-6.4,4.2-13.8,7.8-22,10.9c-8.3,3-16.9,5.5-26,7.5
	c-9.1,2-18.2,3.5-27.6,4.6c-9.3,1-18.2,1.5-26.7,1.5c-37.2,0-70.2-5.3-98.9-15.9c-28.7-10.6-52.8-26.4-72.1-47.4
	c-19.3-21-33.8-47-43.3-78.3c-9.5-31.2-13.5-67.5-12.1-108.7c1.7-37.6,8.6-72.3,20.8-104.3C57,125.5,73.7,97.9,94.9,74.5
	c21.4-23.3,46.8-41.5,76.4-54.7C201,6.6,233.9,0,270.4,0c36.3,0,68.3,5.8,95.9,17.2c27.6,11.5,50.8,27.5,69.2,48.3
	c18.5,20.8,32.2,45.7,41.1,74.7S489.3,201.2,487.8,236.4L487.8,236.4z M213,267.7c-2,23.8-0.2,41.8,5.6,54
	c5.8,12.2,15,18.2,27.8,18.2c2.8,0,6-0.6,9.5-1.8c3.5-1.2,7.2-3.4,11-6.6c3.8-3.2,7.5-7.7,11.1-13.4c3.7-5.8,7.1-13.4,10.2-22.7
	l10.9-125.3c-5.4-1.5-11.2-2.2-17-2.2c-11,0-20.4,2.2-28.3,6.5c-7.9,4.3-14.6,10.7-20.1,19.1c-5.4,8.4-9.9,18.9-13.3,31.4
	S214.7,251.5,213,267.7L213,267.7z"/>
</svg>
